<svg version="1.1" id="Layer_1" xmlns="http://www.w3.org/2000/svg" xmlns:xlink="http://www.w3.org/1999/xlink" x="0px" y="0px"
	 width="100%" viewBox="0 0 1024 816" enable-background="new 0 0 1024 816" xml:space="preserve">
<path fill="#000000" opacity="1.000000" stroke="none" 
	d="
M575.741516,526.805420 
	C547.873657,543.629517 517.986877,551.910522 485.855286,550.013489 
	C450.230133,547.910156 416.894592,537.600891 386.214569,519.090759 
	C361.782776,504.350311 339.290985,486.795471 315.769867,470.735016 
	C291.912903,454.445190 267.399109,439.349976 239.923035,429.784851 
	C220.080856,422.877258 199.658249,419.112427 178.618607,420.494507 
	C149.598526,422.400818 123.134521,432.338806 98.402657,447.301849 
	C90.124374,452.310333 82.231003,457.874939 74.384415,463.516510 
	C73.505486,464.148407 72.882133,465.415741 71.449165,464.874207 
	C70.724121,463.978516 71.369583,463.258575 71.830276,462.659363 
	C97.537415,429.224701 129.120239,404.259338 171.015808,394.406433 
	C199.480164,387.712250 227.136566,391.538483 254.361282,401.145996 
	C286.712830,412.562744 315.577362,430.385193 343.920685,449.232727 
	C366.110077,463.988007 388.041260,479.141632 412.067627,490.934937 
	C440.688141,504.983398 470.769501,511.335846 502.571930,508.588989 
	C533.282593,505.936401 561.007935,494.821716 586.667114,478.070984 
	C609.364136,463.254028 629.288757,444.998993 649.809448,427.475525 
	C664.399109,415.016907 679.258301,402.937378 696.752136,394.611206 
	C708.821350,388.866791 721.554504,386.065704 734.878174,385.891296 
	C736.623718,385.868439 738.570557,385.632599 740.519348,387.648804 
	C730.525024,390.078583 721.576416,394.084473 713.200500,399.367096 
	C689.499878,414.314941 670.536316,434.336761 652.637451,455.557831 
	C630.025330,482.366821 606.384583,508.107361 575.741516,526.805420 
z"/>
<path fill="#000000" opacity="1.000000" stroke="none" 
	d="
M587.316895,333.292328 
	C604.474609,319.771515 620.513062,305.403961 638.304016,293.268860 
	C652.029480,283.906708 666.550720,276.270172 682.961365,272.763947 
	C704.861755,268.084778 725.662903,272.315765 745.757935,280.995728 
	C776.636841,294.333771 804.676086,312.703613 832.902710,330.728546 
	C851.721497,342.745880 870.557556,354.762634 891.623901,362.650665 
	C911.719971,370.175476 931.978088,372.330444 952.516785,364.349854 
	C953.259888,364.061127 954.073914,363.653656 955.074951,364.614075 
	C953.693726,367.453552 950.725098,368.503510 948.275330,369.777100 
	C931.579346,378.456940 913.799622,381.322754 895.083130,379.713531 
	C865.987183,377.211884 840.273499,365.480072 815.162720,351.630402 
	C790.810791,338.199280 766.362610,324.879669 740.070374,315.453827 
	C717.907532,307.508331 695.465271,304.855927 672.573975,312.337128 
	C656.201843,317.687714 642.114563,327.199158 628.076355,336.795013 
	C605.123108,352.484863 582.773438,369.132050 557.668213,381.418518 
	C541.360352,389.399536 524.576965,395.272797 505.955048,394.428741 
	C490.230438,393.716003 477.457520,387.146942 466.698853,376.147552 
	C462.339264,371.690399 458.274200,366.931244 454.971741,360.879944 
	C456.113739,361.055695 456.719116,360.960205 456.966553,361.213898 
	C472.989960,377.640106 492.439728,380.142944 513.657104,375.027740 
	C534.299316,370.051178 551.980774,359.089661 569.045471,347.010345 
	C575.162048,342.680603 581.045959,338.022034 587.316895,333.292328 
z"/>
<path fill="#000000" opacity="1.000000" stroke="none" 
	d="
M483.787109,432.014374 
	C503.504242,434.081177 522.454834,432.003143 541.113525,427.231445 
	C580.584534,417.137329 615.621277,397.854523 648.654602,374.599274 
	C663.781067,363.950317 678.517578,352.771667 691.819458,339.832123 
	C692.726501,338.949768 693.525757,337.721985 695.191284,337.963135 
	C696.016174,339.602264 694.584778,340.402374 693.790833,341.253082 
	C655.835815,381.921692 614.596741,418.473694 564.323120,443.512573 
	C542.058655,454.601410 518.642578,462.097900 493.595917,462.891602 
	C472.675232,463.554535 452.660522,458.686401 433.297394,451.005646 
	C410.207733,441.846771 389.599152,428.316193 369.167877,414.484955 
	C350.548126,401.880127 332.104187,389.009766 311.670013,379.353149 
	C296.560425,372.212738 280.693451,368.034821 264.042725,367.561493 
	C253.885345,367.272736 243.826233,369.046570 234.021515,371.911743 
	C232.935913,372.229004 231.838425,372.836395 230.329727,371.906586 
	C231.455231,369.481262 233.859039,368.554718 235.894714,367.472076 
	C254.145950,357.765564 273.768494,355.246216 294.027527,357.222626 
	C342.763763,361.977142 384.446198,384.201172 424.384369,410.526001 
	C442.364105,422.377075 461.782074,430.043121 483.787109,432.014374 
z"/>
</svg>